<?xml version="1.0" encoding="UTF-8" standalone="no"?>
<!-- Created with Inkscape (http://www.inkscape.org/) -->

<svg
   width="52.835381mm"
   height="38.663834mm"
   viewBox="0 0 52.835381 38.663834"
   version="1.1"
   id="svg2279"
   inkscape:export-filename="..\..\..\inkscape\binaan-2.svg"
   inkscape:export-xdpi="17.104378"
   inkscape:export-ydpi="17.104378"
   inkscape:version="1.2.2 (732a01da63, 2022-12-09)"
   sodipodi:docname="drawing.svg"
   xmlns:inkscape="http://www.inkscape.org/namespaces/inkscape"
   xmlns:sodipodi="http://sodipodi.sourceforge.net/DTD/sodipodi-0.dtd"
   xmlns="http://www.w3.org/2000/svg"
   xmlns:svg="http://www.w3.org/2000/svg">
  <sodipodi:namedview
     id="namedview2281"
     pagecolor="#ffffff"
     bordercolor="#999999"
     borderopacity="1"
     inkscape:showpageshadow="0"
     inkscape:pageopacity="0"
     inkscape:pagecheckerboard="0"
     inkscape:deskcolor="#d1d1d1"
     inkscape:document-units="mm"
     showgrid="false"
     inkscape:zoom="0.71624579"
     inkscape:cx="295.28969"
     inkscape:cy="561.95793"
     inkscape:window-width="1920"
     inkscape:window-height="991"
     inkscape:window-x="-9"
     inkscape:window-y="-9"
     inkscape:window-maximized="1"
     inkscape:current-layer="layer1" />
  <defs
     id="defs2276" />
  <g
     inkscape:label="Layer 1"
     inkscape:groupmode="layer"
     id="layer1"
     transform="translate(-109.92744,-45.16339)">
    <path
       d="m 137.29574,67.550038 19.38197,0.0011 h 2.80811 c 1.44956,0 2.62608,1.176161 2.62608,2.626078 0,0.724606 -0.29528,1.380067 -0.76835,1.857375 -0.47731,0.473075 -1.13277,0.76835 -1.85773,0.76835 l -18.97627,0.0046 0.005,0.0127 h -4.86974 c -0.72496,0 -1.38042,0.295275 -1.85349,0.76835 -0.47308,0.473075 -0.76835,1.12395 -0.76835,1.848909 0,1.449564 1.17192,2.621844 2.62184,2.621844 h 1.85314 c -1.41499,0 -2.55658,1.145823 -2.55658,2.560462 0,1.410758 1.14159,2.556598 2.55658,2.556598 h -8.3118 c -1.33667,-0.0042 -2.96897,-0.290689 -4.02801,-0.577145 -2.95981,-0.807173 -4.99146,-1.254495 -7.70396,-1.38467 -0.99837,-0.05221 -2.00943,-0.01729 -3.00779,0.09137 l -0.0261,0.0039 c -0.86819,0.0956 -1.72297,-0.351367 -2.18335,-1.180395 -0.75494,-1.349727 -1.67075,-3.84563 -1.6577,-7.977717 0.0173,-4.374797 1.15429,-6.740525 2.00942,-7.894814 0.44274,-0.607836 1.1109,-0.95497 1.80975,-0.95497 h 0.0134 c 1.64924,-0.199672 5.11704,-0.3429 7.67362,-2.782005 2.60844,-3.498498 6.85765,-5.125862 8.5591,-6.610704 l 5.8681,-7.0485 c 0.90735,-1.054806 2.33539,-1.597378 3.98004,-0.256469 1.52788,1.246011 -0.32526,4.453467 -0.78105,5.234517 l -7.68244,10.4648 h 24.57521 c 0.74224,0.0042 1.41464,0.304095 1.90076,0.77717 0.4819,0.477308 0.78564,1.137003 0.78141,1.861961 -0.004,1.419225 -1.16734,2.569281 -2.60844,2.608439 l -19.38197,-0.0011"
       style="fill:#ffffff;fill-opacity:1;fill-rule:nonzero;stroke:none;stroke-width:0.0352778"
       id="path484" />
    <path
       d="m 116.539,80.540022 c 0.31997,0 0.63606,0.0081 0.94862,0.02434 2.75202,0.132291 4.8006,0.577497 7.84119,1.406172 1.00895,0.27342 2.59398,0.551056 3.85904,0.554937 h 5.73052 c -0.3944,-0.533418 -0.62865,-1.192407 -0.62865,-1.905723 0,-0.745773 0.25541,-1.433337 0.68298,-1.978731 -1.48343,-0.310797 -2.60138,-1.628775 -2.60138,-3.203575 0,-0.870656 0.34078,-1.690864 0.9592,-2.309284 0.61807,-0.618419 1.44004,-0.95885 2.31352,-0.95885 h 4.73921 c 0.0413,-0.0085 0.0829,-0.01305 0.1263,-0.01305 l 18.97662,-0.0042 c 0.52458,0 1.02165,-0.206022 1.39877,-0.579967 0.36971,-0.372886 0.57573,-0.869597 0.57573,-1.395236 0,-1.089025 -0.88583,-1.97485 -1.9745,-1.97485 L 137.29574,68.2013 c -0.35912,0 -0.65087,-0.291748 -0.65087,-0.651228 0,-0.359481 0.29175,-0.650875 0.65087,-0.650875 v 0 l 19.38162,7.05e-4 c 1.0869,-0.02963 1.95474,-0.890764 1.95791,-1.959328 0.003,-0.522464 -0.20602,-1.018822 -0.58878,-1.397705 -0.38488,-0.374298 -0.90029,-0.585259 -1.44675,-0.588434 h -24.57132 c -0.24518,0 -0.4699,-0.137936 -0.58067,-0.357011 -0.11078,-0.219075 -0.0893,-0.481189 0.0561,-0.679097 l 7.66198,-10.436579 c 1.26365,-2.176286 1.60584,-3.809294 0.91475,-4.373033 -1.41958,-1.157464 -2.45569,-0.543278 -3.07516,0.176389 l -5.86105,7.040739 c -0.0219,0.02646 -0.0462,0.05151 -0.072,0.07408 -0.60078,0.523523 -1.45239,1.038225 -2.4384,1.633362 -1.93781,1.169811 -4.34975,2.625725 -6.02721,4.875389 -0.0215,0.02893 -0.0455,0.05644 -0.0723,0.08184 -2.47473,2.361142 -5.76933,2.712509 -7.53921,2.901245 -0.18309,0.0194 -0.35243,0.03775 -0.50589,0.05644 -0.0261,0.0028 -0.0519,0.0046 -0.0783,0.0046 -0.51047,0 -0.97826,0.250473 -1.29717,0.687212 -0.69779,0.943327 -1.8669,3.167944 -1.88454,7.51452 -0.012,3.979686 0.8502,6.360583 1.57516,7.657042 0.3302,0.594077 0.92322,0.917928 1.54411,0.851253 0.74824,-0.0822 1.47849,-0.122767 2.19039,-0.122767 z m 20.95853,3.287201 h -8.3118 c -1.47955,-0.0046 -3.18593,-0.325967 -4.19805,-0.599722 -2.95099,-0.804686 -4.93078,-1.236504 -7.56532,-1.362446 -0.9398,-0.04833 -1.91735,-0.0187 -2.90619,0.08819 -1.16134,0.128764 -2.27083,-0.464961 -2.84868,-1.508125 -0.80045,-1.430162 -1.7533,-4.032251 -1.7399,-8.295218 0.0176,-4.482394 1.17193,-6.977239 2.13748,-8.2804 0.55775,-0.765528 1.39842,-1.210028 2.30611,-1.218847 0.14888,-0.01729 0.31115,-0.03493 0.48613,-0.05362 1.71944,-0.183091 4.58964,-0.489302 6.73982,-2.51213 1.82704,-2.427464 4.34128,-3.945114 6.36411,-5.166431 0.91123,-0.550334 1.70074,-1.026936 2.21721,-1.46685 l 5.83353,-7.007931 c 1.06222,-1.23437 2.89913,-1.967442 4.89197,-0.343959 0.89888,0.733073 1.51942,2.380898 -0.63041,6.067073 -0.0116,0.01976 -0.0243,0.03881 -0.0377,0.05715 l -6.9215,9.428692 h 23.28933 c 0.88865,0.0049 1.72403,0.346428 2.3555,0.96132 0.63747,0.631119 0.98319,1.458383 0.97826,2.332567 -0.002,0.734483 -0.24766,1.410405 -0.66287,1.95333 h 0.21166 c 1.80693,0 3.2766,1.470025 3.2766,3.276953 0,0.871714 -0.33972,1.694392 -0.95744,2.316339 -0.62653,0.620889 -1.44885,0.960967 -2.31916,0.960967 l -18.84504,0.0042 c -0.0416,0.0085 -0.084,0.01341 -0.127,0.01341 h -4.87009 c -0.52599,0 -1.02059,0.204964 -1.39277,0.576792 -0.37253,0.372886 -0.57785,0.866069 -0.57785,1.388886 0,1.086203 0.88406,1.970617 1.97062,1.970617 h 1.85349 c 0.35948,0 0.65123,0.291394 0.65123,0.651227 0,0.359128 -0.29175,0.650523 -0.65123,0.650523 -1.05057,0 -1.9057,0.856897 -1.9057,1.909939 0,1.050925 0.85513,1.905723 1.9057,1.905723 0.35948,0 0.65123,0.291394 0.65123,0.650522 0,0.359834 -0.29175,0.651228 -0.65123,0.651228"
       style="fill:#999999;fill-opacity:1;fill-rule:nonzero;stroke:none;stroke-width:0.0352778"
       id="path486" />
    <path
       d="m 147.9969,75.437444 c 0,1.449564 -1.17192,2.621844 -2.62184,2.621844 h -9.73067 c -1.44992,0 -2.62184,-1.17228 -2.62184,-2.621844 0,-0.724959 0.29527,-1.375834 0.76835,-1.848909 0.47307,-0.473075 1.12853,-0.76835 1.85349,-0.76835 h 9.73067 c 1.44992,0 2.62184,1.171928 2.62184,2.617259"
       style="fill:#ffffff;fill-opacity:1;fill-rule:nonzero;stroke:none;stroke-width:0.0352778"
       id="path488" />
    <path
       d="m 135.64404,73.471766 c -0.52599,0 -1.02059,0.204964 -1.39277,0.576792 -0.37253,0.372886 -0.57785,0.866069 -0.57785,1.388886 0,1.086203 0.88406,1.970617 1.97062,1.970617 h 9.73102 c 1.08656,0 1.97062,-0.884414 1.97062,-1.970617 0,-1.083734 -0.88406,-1.965678 -1.97062,-1.965678 z m 9.73102,5.238045 h -9.73102 c -1.80446,0 -3.27272,-1.468262 -3.27272,-3.272367 0,-0.870656 0.34078,-1.690864 0.9592,-2.309284 0.61807,-0.618419 1.44004,-0.95885 2.31352,-0.95885 h 9.73102 c 1.80446,0 3.27272,1.466145 3.27272,3.268134 0,1.804105 -1.46826,3.272367 -3.27272,3.272367"
       style="fill:#999999;fill-opacity:1;fill-rule:nonzero;stroke:none;stroke-width:0.0352778"
       id="path490" />
    <path
       d="m 146.47784,80.61975 c 0,1.410758 -1.14582,2.556598 -2.56081,2.556598 h -6.4195 c -1.41499,0 -2.55658,-1.14584 -2.55658,-2.556598 0,-1.414639 1.14159,-2.560462 2.55658,-2.560462 h 6.4195 c 0.70732,0 1.34549,0.286456 1.8101,0.750359 0.46426,0.460375 0.75071,1.10243 0.75071,1.810103"
       style="fill:#ffffff;fill-opacity:1;fill-rule:nonzero;stroke:none;stroke-width:0.0352778"
       id="path492" />
    <path
       d="m 137.49753,78.709811 c -1.05057,0 -1.9057,0.856897 -1.9057,1.909939 0,1.050925 0.85513,1.905723 1.9057,1.905723 h 6.4195 c 1.05304,0 1.90959,-0.854798 1.90959,-1.905723 0,-0.512587 -0.19791,-0.990953 -0.55775,-1.346906 -0.36406,-0.363361 -0.84278,-0.563033 -1.35184,-0.563033 z m 6.4195,5.117412 h -6.4195 c -1.76883,0 -3.20781,-1.438981 -3.20781,-3.207473 0,-1.770945 1.43898,-3.211689 3.20781,-3.211689 h 6.4195 c 0.85654,0 1.66299,0.33408 2.27012,0.941916 0.60643,0.600075 0.94157,1.406878 0.94157,2.269773 0,1.768492 -1.44075,3.207473 -3.21169,3.207473"
       style="fill:#999999;fill-opacity:1;fill-rule:nonzero;stroke:none;stroke-width:0.0352778"
       id="path494" />
    <path
       d="m 124.25531,74.348066 c -0.28892,0 -0.55245,-0.193322 -0.629,-0.485422 -0.0917,-0.347486 0.11571,-0.703439 0.4632,-0.795162 0.043,-0.01129 2.20662,-0.605719 4.17159,-2.224969 2.58481,-2.130425 3.63538,-4.970639 3.12315,-8.44409 -0.0522,-0.3556 0.19367,-0.686505 0.54927,-0.739069 0.35419,-0.05256 0.68615,0.193675 0.73942,0.549275 1.39524,9.463617 -8.15481,12.092165 -8.25147,12.117565 -0.0557,0.01482 -0.11148,0.02187 -0.16616,0.02187"
       style="fill:#999999;fill-opacity:1;fill-rule:nonzero;stroke:none;stroke-width:0.0352778"
       id="path496" />
  </g>
</svg>
