<?xml version="1.0" encoding="UTF-8" standalone="no"?>
<!-- Created with Inkscape (http://www.inkscape.org/) -->

<svg
   width="50.005596mm"
   height="38.607513mm"
   viewBox="0 0 50.005596 38.607513"
   version="1.1"
   id="svg2279"
   inkscape:export-filename="..\..\..\inkscape\binaan-1.svg"
   inkscape:export-xdpi="17.104378"
   inkscape:export-ydpi="17.104378"
   inkscape:version="1.2.2 (732a01da63, 2022-12-09)"
   sodipodi:docname="drawing.svg"
   xmlns:inkscape="http://www.inkscape.org/namespaces/inkscape"
   xmlns:sodipodi="http://sodipodi.sourceforge.net/DTD/sodipodi-0.dtd"
   xmlns="http://www.w3.org/2000/svg"
   xmlns:svg="http://www.w3.org/2000/svg">
  <sodipodi:namedview
     id="namedview2281"
     pagecolor="#f5ef40"
     bordercolor="#f5ef40"
     borderopacity="1"
     inkscape:showpageshadow="0"
     inkscape:pageopacity="0"
     inkscape:pagecheckerboard="0"
     inkscape:deskcolor="#f5ef40"
     inkscape:document-units="mm"
     showgrid="false"
     inkscape:zoom="0.71624579"
     inkscape:cx="295.28969"
     inkscape:cy="561.95793"
     inkscape:window-width="1920"
     inkscape:window-height="991"
     inkscape:window-x="-9"
     inkscape:window-y="-9"
     inkscape:window-maximized="1"
     inkscape:current-layer="layer1" />
  <defs
     id="defs2276" />
  <g
     inkscape:label="Layer 1"
     inkscape:groupmode="layer"
     id="layer1"
     transform="translate(-28.587935,-46.56909)">
    <path
       d="m 77.942642,66.348477 c -0.0046,1.419225 -1.167694,2.56928 -2.608792,2.608439 H 52.781471 c -0.724958,0 -1.380067,0.295275 -1.853495,0.76835 -0.477308,0.477308 -0.767997,1.128536 -0.767997,1.853141 0,1.449917 1.171928,2.482851 2.569281,2.58692 h 1.571272 c -0.720372,0 -1.380067,0.294922 -1.853142,0.76835 -0.473075,0.473075 -0.76835,1.128183 -0.76835,1.853142 0,1.445683 1.176162,2.621844 2.621492,2.621844 h 1.853495 c -1.410759,0 -2.556581,1.145823 -2.556581,2.556228 0,1.415363 1.145822,2.561185 2.556581,2.561185 l -8.702676,-0.0046 c -1.336675,-0.0042 -2.5781,-0.230011 -3.637139,-0.516467 -2.955925,-0.807156 -4.991453,-1.254478 -7.699728,-1.384653 -1.002665,-0.05186 -2.014009,-0.01729 -3.012088,0.09137 l -0.02621,0.0042 c -0.86801,0.09525 -1.723073,-0.351367 -2.178932,-1.180765 -0.75946,-1.349728 -1.675307,-3.845278 -1.657915,-7.977364 0.01295,-4.375503 1.154642,-6.740879 2.009564,-7.895168 0.442771,-0.607836 1.10684,-0.954969 1.805517,-0.954969 h 0.01309 c 1.649377,-0.199672 5.11743,-0.3429 7.678244,-2.782359 2.604206,-3.498144 6.853414,-5.125861 8.554861,-6.609997 l 5.868106,-7.049206 c 0.906992,-1.054453 2.335037,-1.597025 3.98004,-0.255764 1.52788,1.245658 -0.321381,4.453114 -0.781403,5.234517 L 50.689499,63.709346 H 75.26012 c 0.742244,0.0042 1.414991,0.303741 1.901119,0.777169 0.486128,0.477309 0.785636,1.137356 0.781403,1.861962"
       style="fill:#f5ef40;fill-opacity:1;fill-rule:nonzero;stroke:none;stroke-width:0.0352778"
       id="path466" />
    <path
       d="m 35.197544,81.945841 c 0.320393,0 0.63761,0.0085 0.950701,0.02434 2.754947,0.132292 4.801059,0.577868 7.83777,1.406543 1.196975,0.324203 2.364317,0.490361 3.467453,0.493536 l 6.122106,0.0032 c -0.395111,-0.534106 -0.629003,-1.194506 -0.629003,-1.908546 0,-0.744714 0.254706,-1.430161 0.681567,-1.97485 -1.482725,-0.31115 -2.599973,-1.628775 -2.599973,-3.203222 0,-0.793397 0.280812,-1.544109 0.795514,-2.138186 -1.36525,-0.438503 -2.314928,-1.643592 -2.314928,-3.070226 0,-0.873477 0.340431,-1.69545 0.95885,-2.313516 0.61842,-0.61842 1.440392,-0.959203 2.31387,-0.959203 H 75.33385 c 1.086909,-0.02963 1.954389,-0.890411 1.957564,-1.959681 0,-3.53e-4 0,-0.0011 0,-0.0014 0.0032,-0.524933 -0.204964,-1.019528 -0.586316,-1.393825 -0.38735,-0.376767 -0.902759,-0.587375 -1.448506,-0.59055 H 50.689499 c -0.245534,0 -0.470253,-0.137584 -0.580673,-0.356659 -0.111125,-0.218722 -0.0896,-0.481188 0.05574,-0.67945 L 57.82302,52.88651 c 1.271411,-2.168173 1.613252,-3.801534 0.9144,-4.371623 -1.419578,-1.157817 -2.456392,-0.54363 -3.074812,0.176389 L 49.8005,55.732015 c -0.02187,0.02611 -0.04621,0.05115 -0.07197,0.07338 -0.600428,0.524228 -1.451328,1.037872 -2.436284,1.633009 -1.938161,1.169811 -4.34975,2.62643 -6.024386,4.875742 -0.02222,0.02963 -0.04692,0.05715 -0.07338,0.08255 -2.477911,2.360789 -5.772715,2.712508 -7.542283,2.900891 -0.183551,0.0194 -0.352637,0.03775 -0.506131,0.05644 -0.02632,0.0032 -0.05225,0.0049 -0.07842,0.0049 -0.507789,0 -0.973984,0.250472 -1.292719,0.687211 -0.699911,0.945444 -1.871381,3.173236 -1.884469,7.513814 -0.01711,3.985331 0.846808,6.363053 1.574518,7.656337 0.327731,0.596194 0.912954,0.91828 1.539981,0.852311 0.748136,-0.0822 1.479162,-0.122767 2.192585,-0.122767 z m 20.95613,3.230757 c 0,0 0,0 -3.53e-4,0 h -0.0018 -3.52e-4 l -8.700207,-0.0039 c -1.218494,-0.0039 -2.498725,-0.185562 -3.806825,-0.539398 -2.946047,-0.804333 -4.924072,-1.236133 -7.561086,-1.362428 -0.943963,-0.04904 -1.921969,-0.0194 -2.910276,0.08784 -1.165966,0.128764 -2.271572,-0.464608 -2.845788,-1.509554 -0.801617,-1.424164 -1.756587,-4.024842 -1.738807,-8.293806 0.01362,-4.476045 1.169953,-6.973711 2.137728,-8.2804 0.55813,-0.765528 1.396365,-1.209323 2.301734,-1.218495 0.148837,-0.01729 0.311715,-0.03457 0.486304,-0.05327 1.719122,-0.183798 4.590169,-0.489656 6.743524,-2.512131 1.82492,-2.428522 4.338815,-3.946525 6.361642,-5.167489 0.91052,-0.549628 1.699331,-1.026584 2.215445,-1.466145 l 5.833886,-7.007578 c 1.06292,-1.23437 2.898776,-1.9685 4.89197,-0.343958 0.906639,0.739422 1.532467,2.392186 -0.631472,6.068836 -0.01164,0.01905 -0.02328,0.03739 -0.03669,0.05539 l -6.91762,9.42834 h 23.285804 c 0.887942,0.0049 1.722967,0.346428 2.354792,0.961319 0.636411,0.62477 0.983192,1.452034 0.978253,2.331509 -0.006,1.777294 -1.429456,3.207455 -3.241675,3.256492 H 52.781471 c -0.525992,0 -1.020586,0.205316 -1.393119,0.57785 -0.372181,0.37218 -0.577498,0.866775 -0.577498,1.392766 0,1.166637 0.974373,1.853848 1.944511,1.936045 h 1.545167 c 0.359481,0 0.651228,0.291394 0.651228,0.650522 0,0.359834 -0.291747,0.651228 -0.651228,0.651228 -0.51823,0 -1.025878,0.210961 -1.393119,0.57785 -0.372181,0.372181 -0.577498,0.866775 -0.577498,1.392767 0,1.086203 0.884414,1.970617 1.970617,1.970617 h 1.853142 c 0.359481,0 0.651228,0.291394 0.651228,0.651227 0,0.359128 -0.291747,0.650875 -0.651228,0.650875 -1.050572,0 -1.905353,0.854428 -1.905353,1.905353 0,1.052707 0.854781,1.909604 1.905,1.909957 h 7.06e-4 c 0.35948,0 0.650875,0.291394 0.650875,0.651228 0,0.35948 -0.291747,0.650522 -0.651228,0.650522"
       style="fill:#f5ef40;fill-opacity:1;fill-rule:nonzero;stroke:none;stroke-width:0.0352778"
       id="path468"
       inkscape:export-filename=".\binaan-1.svg"
       inkscape:export-xdpi="17.104378"
       inkscape:export-ydpi="17.104378" />
    <path
       d="m 66.6534,76.786819 c 0,1.445683 -1.171928,2.621844 -2.621845,2.621844 h -9.731023 c -1.44533,0 -2.621492,-1.176161 -2.621492,-2.621844 0,-0.724959 0.295275,-1.380067 0.76835,-1.853142 0.473075,-0.473428 1.13277,-0.76835 1.853142,-0.76835 h 9.731023 c 1.449917,0 2.621845,1.171928 2.621845,2.621492"
       style="fill:#f5ef40;fill-opacity:1;fill-rule:nonzero;stroke:none;stroke-width:0.0352778"
       id="path470" />
    <path
       d="m 54.300532,74.816202 c -0.51823,0 -1.025878,0.210961 -1.393119,0.57785 -0.372181,0.372181 -0.577498,0.866775 -0.577498,1.392767 0,1.086203 0.884414,1.970617 1.970617,1.970617 h 9.731023 c 1.086556,0 1.970617,-0.884414 1.970617,-1.970617 0,-1.086203 -0.884061,-1.970617 -1.970617,-1.970617 z m 9.731023,5.243336 h -9.731023 c -1.804105,0 -3.272367,-1.468261 -3.272367,-3.272719 0,-0.873478 0.340078,-1.69545 0.958498,-2.313517 0.6096,-0.609247 1.453091,-0.95885 2.313869,-0.95885 h 9.731023 c 1.804459,0 3.27272,1.468261 3.27272,3.272367 0,1.804458 -1.468261,3.272719 -3.27272,3.272719"
       style="fill:#f5ef40;fill-opacity:1;fill-rule:nonzero;stroke:none;stroke-width:0.0352778"
       id="path472" />
    <path
       d="m 66.6534,71.543835 c 0,1.449564 -1.176161,2.621492 -2.621845,2.621492 H 52.72926 c -1.397353,-0.104069 -2.569281,-1.137003 -2.569281,-2.58692 0,-0.724605 0.290689,-1.375833 0.767997,-1.853141 0.473428,-0.473075 1.128537,-0.76835 1.853495,-0.76835 h 11.250084 c 1.445684,0 2.621845,1.141589 2.621845,2.586919"
       style="fill:#f5ef40;fill-opacity:1;fill-rule:nonzero;stroke:none;stroke-width:0.0352778"
       id="path474" />
    <path
       d="m 52.755365,73.514452 h 11.27619 c 1.086556,0 1.970617,-0.884414 1.970617,-1.970617 0,-1.067505 -0.884061,-1.936044 -1.970617,-1.936044 H 52.781471 c -0.525992,0 -1.020586,0.205316 -1.393119,0.57785 -0.372181,0.37218 -0.577498,0.866775 -0.577498,1.392766 0,1.166637 0.974373,1.853848 1.944511,1.936045 z m 11.27619,1.30175 H 52.72926 c -0.01587,0 -0.0321,-3.53e-4 -0.04798,-0.0018 -1.808692,-0.135114 -3.172531,-1.526117 -3.172531,-3.236031 0,-0.873477 0.340431,-1.69545 0.95885,-2.313516 0.61842,-0.61842 1.440392,-0.959203 2.31387,-0.959203 h 11.250084 c 1.804459,0 3.27272,1.452739 3.27272,3.238147 0,1.804106 -1.468261,3.272367 -3.27272,3.272367"
       style="fill:#f5ef40;fill-opacity:1;fill-rule:nonzero;stroke:none;stroke-width:0.0352778"
       id="path476" />
    <path
       d="m 65.133986,81.964891 c 0,1.415363 -1.145823,2.561185 -2.556228,2.561185 h -6.423731 c -1.410759,0 -2.556581,-1.145822 -2.556581,-2.561185 0,-1.410405 1.145822,-2.556228 2.556581,-2.556228 h 6.423731 c 0.707319,0 1.345494,0.286103 1.805517,0.750712 0.464255,0.460022 0.750711,1.098197 0.750711,1.805516"
       style="fill:#f5ef40;fill-opacity:1;fill-rule:nonzero;stroke:none;stroke-width:0.0352778"
       id="path478" />
    <path
       d="m 56.153674,80.059538 c -1.050572,0 -1.905353,0.854428 -1.905353,1.905353 0,1.05306 0.854781,1.909957 1.905353,1.909957 h 6.423731 c 1.050925,0 1.905706,-0.856897 1.905706,-1.909957 0,-0.509411 -0.198261,-0.986366 -0.558095,-1.342672 -0.360892,-0.364419 -0.837494,-0.562681 -1.347611,-0.562681 z m 6.423731,5.11706 h -6.423731 c -1.768122,0 -3.207103,-1.440744 -3.207103,-3.211707 0,-1.768475 1.438981,-3.207455 3.207103,-3.207455 h 6.423731 c 0.860072,0 1.665817,0.335139 2.268714,0.944033 0.603956,0.597958 0.939095,1.403703 0.939095,2.263422 0,1.770963 -1.438981,3.211707 -3.207809,3.211707"
       style="fill:#f5ef40;fill-opacity:1;fill-rule:nonzero;stroke:none;stroke-width:0.0352778"
       id="path480" />
    <path
       d="m 42.930504,75.753885 c -0.288572,0 -0.552098,-0.192969 -0.629003,-0.485069 -0.09172,-0.347486 0.115711,-0.703439 0.462844,-0.795514 0.352778,-0.09384 8.503004,-2.36855 7.279218,-10.667648 -0.05221,-0.355953 0.193322,-0.686505 0.549275,-0.739069 0.353836,-0.05151 0.686152,0.192969 0.739069,0.549275 1.395236,9.463264 -8.138584,12.091106 -8.234892,12.116506 -0.05609,0.01482 -0.111478,0.02152 -0.166511,0.02152"
       style="fill:#f5ef40;fill-opacity:1;fill-rule:nonzero;stroke:none;stroke-width:0.0352778"
       id="path482" />
  </g>
</svg>
