<?xml version="1.0" encoding="UTF-8" standalone="no"?>
<!-- Created with Inkscape (http://www.inkscape.org/) -->

<svg
   width="25.243195mm"
   height="51.08477mm"
   viewBox="0 0 25.243195 51.08477"
   version="1.1"
   id="svg2279"
   inkscape:export-filename="..\..\..\inkscape\teguran-2.svg"
   inkscape:export-xdpi="20.124235"
   inkscape:export-ydpi="20.124235"
   inkscape:version="1.2.2 (732a01da63, 2022-12-09)"
   sodipodi:docname="drawing.svg"
   xmlns:inkscape="http://www.inkscape.org/namespaces/inkscape"
   xmlns:sodipodi="http://sodipodi.sourceforge.net/DTD/sodipodi-0.dtd"
   xmlns="http://www.w3.org/2000/svg"
   xmlns:svg="http://www.w3.org/2000/svg">
  <sodipodi:namedview
     id="namedview2281"
     pagecolor="#f5ef40"
     bordercolor="#f5ef40"
     borderopacity="1"
     inkscape:showpageshadow="0"
     inkscape:pageopacity="0"
     inkscape:pagecheckerboard="0"
     inkscape:deskcolor="#d1d1d1"
     inkscape:document-units="mm"
     showgrid="false"
     inkscape:zoom="0.71624579"
     inkscape:cx="295.28969"
     inkscape:cy="561.95793"
     inkscape:window-width="1920"
     inkscape:window-height="991"
     inkscape:window-x="-9"
     inkscape:window-y="-9"
     inkscape:window-maximized="1"
     inkscape:current-layer="layer1" />
  <defs
     id="defs2276" />
  <g
     inkscape:label="Layer 1"
     inkscape:groupmode="layer"
     id="layer1"
     transform="translate(-117.21904,-115.05039)">
    <path
       d="m 134.93436,144.46361 c 0.25082,1.42699 -0.70309,2.7873 -2.13043,3.03813 v 0 c -1.42734,0.25047 -2.78765,-0.70344 -3.03812,-2.13078 l -4.66901,-26.59098 c -0.25083,-1.42734 0.70308,-2.78765 2.13042,-3.03812 v 0 c 1.42734,-0.25048 2.7873,0.70343 3.03812,2.13077 l 4.66902,26.59098"
       style="fill:#f5ef40;fill-opacity:1;fill-rule:nonzero;stroke:none;stroke-width:0.0352778"
       id="path210" />
    <path
       d="m 127.68548,116.35287 c -0.11465,0 -0.23036,0.01 -0.34572,0.0303 -1.07139,0.18838 -1.79035,1.21249 -1.60197,2.28388 l 4.66937,26.59098 c 0.091,0.51929 0.37888,0.9719 0.81033,1.27423 0.43145,0.30269 0.95532,0.41946 1.47355,0.32809 0.51965,-0.091 0.97155,-0.37889 1.27424,-0.81034 0.30268,-0.43144 0.41874,-0.95496 0.32773,-1.4739 v 0 l -4.66866,-26.59098 c -0.0914,-0.51929 -0.37924,-0.97155 -0.81069,-1.27388 -0.33549,-0.2353 -0.72672,-0.35842 -1.12818,-0.35842 z m 4.65772,31.84031 c -0.66675,0 -1.31586,-0.20355 -1.87325,-0.59443 -0.71649,-0.50236 -1.19415,-1.25377 -1.34549,-2.11561 l -4.66937,-26.59063 c -0.15134,-0.86148 0.0423,-1.73037 0.54469,-2.44686 0.50236,-0.71614 1.25342,-1.19345 2.11455,-1.34514 0.8629,-0.15099 1.73073,0.0416 2.44722,0.54433 0.71579,0.50236 1.19345,1.25342 1.34514,2.11455 l 4.66902,26.59133 c 0.15134,0.86184 -0.042,1.73038 -0.54434,2.44687 -0.50235,0.71614 -1.25342,1.1938 -2.11455,1.3455 -0.1912,0.0335 -0.38312,0.0501 -0.57362,0.0501"
       style="fill:#f5ef40;fill-opacity:1;fill-rule:nonzero;stroke:none;stroke-width:0.0352778"
       id="path212" />
    <path
       d="m 119.19059,138.33516 0.004,8.93586 c 0.005,1.33562 0.22684,2.57669 0.51682,3.63537 0.80539,2.95769 1.2513,4.99075 1.38289,7.7015 0.0515,1.00153 0.0162,2.01224 -0.0931,3.0099 l -0.004,0.0272 c -0.0921,0.86854 0.35384,1.72156 1.18428,2.18123 1.34831,0.7567 3.84316,1.67322 7.97525,1.6577 4.37515,-0.0155 6.74052,-1.15535 7.89622,-2.01013 0.60607,-0.44309 0.95532,-1.10737 0.95285,-1.80657 l -3.5e-4,-0.0134 c 0.17004,-1.37795 0.29669,-4.02273 1.75401,-6.34788 0.64911,-1.03611 1.03047,-2.21721 1.03047,-3.43994 v -5.55519 l -22.59895,-7.9756"
       style="fill:#f5ef40;fill-opacity:1;fill-rule:nonzero;stroke:none;stroke-width:0.0352778"
       id="path214" />
    <path
       d="m 130.05438,166.13511 c -4.20123,3.5e-4 -6.77157,-0.94439 -8.1915,-1.74061 -1.03893,-0.57538 -1.63442,-1.6824 -1.51306,-2.81905 7e-4,-0.0109 0.007,-0.0483 0.008,-0.0596 0.10407,-0.95497 0.13441,-1.93287 0.0861,-2.87408 -0.12841,-2.63948 -0.5588,-4.61821 -1.36031,-7.56426 -0.35384,-1.28693 -0.53552,-2.56752 -0.5401,-3.804 l -0.004,-8.93798 c 0,-0.35983 0.29104,-0.65123 0.65052,-0.65123 3.5e-4,0 3.5e-4,0 3.5e-4,0 0.35948,0 0.65123,0.29104 0.65123,0.65052 l 0.004,8.93622 c 0.004,1.11936 0.17039,2.28565 0.49389,3.46322 0.82656,3.03812 1.27106,5.08494 1.40511,7.8419 0.0515,1.01 0.0194,2.05704 -0.0963,3.11291 -10e-4,0.0102 -0.007,0.0473 -0.008,0.0579 -0.0621,0.59091 0.26423,1.18216 0.85654,1.50989 1.28729,0.72214 3.63749,1.57621 7.55685,1.57621 0.0339,0 0.0667,0 0.10019,0 4.34305,-0.0159 6.57084,-1.18639 7.51205,-1.88277 0.44062,-0.32209 0.69074,-0.78811 0.68863,-1.27988 0,-0.0282 0.002,-0.0688 0.005,-0.0967 0.0194,-0.15805 0.0381,-0.33267 0.0586,-0.52176 0.15804,-1.46332 0.42262,-3.9116 1.78964,-6.09212 0.60889,-0.97155 0.93098,-2.04223 0.93098,-3.09386 v -5.55519 c 0,-0.35984 0.29175,-0.65123 0.65123,-0.65123 0.35912,0 0.65087,0.29139 0.65087,0.65123 v 5.55519 c 0,1.29681 -0.39052,2.60632 -1.1303,3.78566 -1.2072,1.92652 -1.44251,4.10104 -1.59773,5.54002 -0.0198,0.18098 -0.0381,0.34925 -0.0561,0.50271 -0.01,0.90946 -0.45191,1.74449 -1.21955,2.3047 -1.30352,0.96449 -3.80048,2.11949 -8.27794,2.13607 -0.0349,0 -0.0702,0 -0.10442,0"
       style="fill:#f5ef40;fill-opacity:1;fill-rule:nonzero;stroke:none;stroke-width:0.0352778"
       id="path216" />
    <path
       d="m 139.22837,118.31643 c -0.47907,-0.48331 -1.13559,-0.78352 -1.86055,-0.78105 -1.41923,0.005 -2.56928,1.16734 -2.61197,2.60985 v 18.68523 l 5.24792,0.39969 v -19.01084 c -0.003,-0.74365 -0.30056,-1.41464 -0.7754,-1.90288"
       style="fill:#f5ef40;fill-opacity:1;fill-rule:nonzero;stroke:none;stroke-width:0.0352778"
       id="path218" />
    <path
       d="m 140.00377,139.88103 c -0.35948,0 -0.65122,-0.29175 -0.65122,-0.65088 v -19.01084 c -0.002,-0.54328 -0.21167,-1.05868 -0.59091,-1.44886 -0.37182,-0.375 -0.86536,-0.5842 -1.385,-0.5842 -0.002,0 -0.004,0 -0.007,0 -1.06822,0.005 -1.93076,0.87313 -1.96357,1.97803 l 7.1e-4,18.66618 c 0,0.35913 -0.29175,0.65087 -0.65123,0.65087 -0.35948,0 -0.65087,-0.29174 -0.65087,-0.65087 v -18.68523 c 0.0533,-1.83021 1.48554,-3.25438 3.26002,-3.26073 0.86924,-0.0102 1.69968,0.34255 2.32551,0.97367 0.62053,0.63782 0.96132,1.47391 0.96414,2.35903 v 19.01295 c 0,0.35913 -0.29175,0.65088 -0.65088,0.65088"
       style="fill:#f5ef40;fill-opacity:1;fill-rule:nonzero;stroke:none;stroke-width:0.0352778"
       id="path220" />
    <path
       d="m 128.53603,155.99274 c -0.35913,0 -0.65088,-0.29139 -0.65088,-0.65087 0,-4.54413 1.03294,-7.86836 3.06987,-9.87954 1.88878,-1.86443 3.9423,-1.85032 4.02802,-1.85773 0.35948,0.005 0.64735,0.29986 0.64276,0.65969 -0.005,0.35631 -0.29563,0.64241 -0.65123,0.64241 -0.002,0 -0.003,0 -0.005,0 -0.24765,3.5e-4 -5.78274,0.13335 -5.78274,10.43517 0,0.35948 -0.29174,0.65087 -0.65122,0.65087"
       style="fill:#f5ef40;fill-opacity:1;fill-rule:nonzero;stroke:none;stroke-width:0.0352778"
       id="path222" />
    <path
       d="m 121.99764,146.21339 c -1.39135,0.2473 -2.71956,-0.68086 -2.96615,-2.07257 l -1.12148,-6.32142 c -0.24659,-1.39171 0.68121,-2.71957 2.07257,-2.96651 v 0 c 1.39135,-0.24695 2.71956,0.68121 2.96615,2.07221 l 1.12148,6.32214 c 0.24695,1.3917 -0.68121,2.71956 -2.07257,2.96615 v 0"
       style="fill:#f5ef40;fill-opacity:1;fill-rule:nonzero;stroke:none;stroke-width:0.0352778"
       id="path224" />
    <path
       d="m 120.43343,135.4639 c -0.11219,0 -0.22437,0.01 -0.33726,0.03 -0.50165,0.0889 -0.93839,0.3683 -1.23049,0.78564 -0.29175,0.41804 -0.40358,0.92393 -0.31468,1.42522 l 1.12148,6.32284 c 0.18415,1.03576 1.17511,1.72932 2.21157,1.54517 0.50165,-0.0893 0.93874,-0.3683 1.23049,-0.78564 0.2921,-0.41769 0.40322,-0.92428 0.31468,-1.42593 l -1.12149,-6.32213 c -0.0889,-0.50165 -0.3683,-0.93909 -0.78563,-1.23049 -0.32385,-0.22613 -0.70168,-0.34466 -1.08867,-0.34466 z m 1.11548,11.43988 c -1.52612,0 -2.8829,-1.09503 -3.15842,-2.64866 l -1.12113,-6.32248 c -0.14993,-0.8442 0.0377,-1.69616 0.52917,-2.39889 0.49107,-0.70309 1.22625,-1.17228 2.07045,-1.32186 0.8442,-0.15134 1.6958,0.0381 2.39889,0.52952 0.70309,0.49071 1.17193,1.22626 1.32186,2.07045 l 1.12148,6.32178 c 0.14993,0.84455 -0.0381,1.69651 -0.52952,2.39924 -0.49071,0.70274 -1.22626,1.17193 -2.07045,1.32151 -0.18874,0.0339 -0.37642,0.0494 -0.56233,0.0494"
       style="fill:#f5ef40;fill-opacity:1;fill-rule:nonzero;stroke:none;stroke-width:0.0352778"
       id="path226" />
    <path
       d="m 124.8174,132.45259 c -1.42523,0.25259 -2.37561,1.6129 -2.12302,3.03812 l 1.69968,9.58321 c 0.25294,1.42522 1.61326,2.37525 3.03813,2.12302 v 0 c 1.42522,-0.25295 2.37595,-1.61326 2.12301,-3.03848 l -1.69968,-9.58321 c -0.25294,-1.42522 -1.61325,-2.3756 -3.03812,-2.12266 v 0"
       style="fill:#f5ef40;fill-opacity:1;fill-rule:nonzero;stroke:none;stroke-width:0.0352778"
       id="path228" />
    <path
       d="m 124.93064,133.09323 c -1.06892,0.1905 -1.78471,1.21426 -1.59526,2.28389 l 1.69968,9.5832 c 0.0921,0.51753 0.37994,0.96873 0.81139,1.27071 0.43145,0.30092 0.95356,0.41557 1.47179,0.32456 0.51858,-0.0921 0.96978,-0.3803 1.27106,-0.81139 0.30162,-0.4311 0.41698,-0.95391 0.3249,-1.47215 l -1.69968,-9.5832 c -0.18944,-1.06963 -1.21532,-1.78224 -2.28388,-1.59562 z m 2.03658,14.79515 c -0.66357,0 -1.31092,-0.20214 -1.86654,-0.5902 -0.71614,-0.50059 -1.19521,-1.25024 -1.34761,-2.11102 l -1.69934,-9.58286 c -0.31503,-1.77588 0.87348,-3.47733 2.64937,-3.79271 3.5e-4,0 3.5e-4,0 3.5e-4,0 1.77588,-0.31609 3.47839,0.87418 3.79271,2.65042 l 1.69969,9.5825 c 0.1531,0.86043 -0.0385,1.72897 -0.53905,2.44546 -0.50059,0.71684 -1.2506,1.19521 -2.11102,1.34726 -0.19262,0.0346 -0.38629,0.0512 -0.57856,0.0512"
       style="fill:#f5ef40;fill-opacity:1;fill-rule:nonzero;stroke:none;stroke-width:0.0352778"
       id="path230" />
    <path
       d="m 137.77845,138.83046 h -6.76522 c -1.89971,0 -2.87549,1.27705 -2.87549,2.84974 0,1.15817 0.92216,2.62643 3.00214,2.62643 h 3.88902 l 2.74814,2.14982 4.0125,-0.14569 c 0.0321,-4.4323 0.41804,-7.4803 -4.01109,-7.4803"
       style="fill:#f5ef40;fill-opacity:1;fill-rule:nonzero;stroke:none;stroke-width:0.0352778"
       id="path232" />
    <path
       d="m 137.77669,147.10768 c -0.14041,0 -0.28187,-0.0451 -0.4004,-0.13829 l -2.57105,-2.01154 h -3.66536 c -2.37278,0 -3.65337,-1.68874 -3.65337,-3.2773 0,-2.0948 1.41746,-3.50132 3.52672,-3.50132 h 6.76522 c 1.57868,0 2.71181,0.37112 3.46463,1.13383 1.27177,1.28834 1.24354,3.39725 1.20791,6.06672 -0.004,0.30409 -0.008,0.6163 -0.0106,0.93556 -0.002,0.35807 -0.29351,0.64665 -0.65087,0.64665 -0.002,0 -0.003,0 -0.005,0 -0.35948,-0.003 -0.64911,-0.29634 -0.64664,-0.65617 0.003,-0.32209 0.006,-0.63677 0.0106,-0.94333 0.0318,-2.36573 0.0565,-4.23404 -0.8322,-5.13503 -0.49565,-0.50201 -1.32609,-0.74613 -2.53824,-0.74613 h -6.76522 c -1.39276,0 -2.22461,0.82197 -2.22461,2.19922 0,0.79375 0.62618,1.97485 2.35126,1.97485 h 3.88938 c 0.14534,0 0.28645,0.0487 0.4011,0.13829 l 2.74779,2.14983 c 0.28363,0.22189 0.33302,0.63076 0.11183,0.91404 -0.12841,0.16405 -0.31997,0.25012 -0.51329,0.25012"
       style="fill:#f5ef40;fill-opacity:1;fill-rule:nonzero;stroke:none;stroke-width:0.0352778"
       id="path234" />
  </g>
</svg>
