<?xml version="1.0" encoding="UTF-8" standalone="no"?>
<!-- Created with Inkscape (http://www.inkscape.org/) -->

<svg
   width="23.922771mm"
   height="49.24955mm"
   viewBox="0 0 23.922771 49.24955"
   version="1.1"
   id="svg2279"
   inkscape:export-filename="..\..\..\inkscape\binaan-2.svg"
   inkscape:export-xdpi="17.104378"
   inkscape:export-ydpi="17.104378"
   inkscape:version="1.2.2 (732a01da63, 2022-12-09)"
   sodipodi:docname="drawing.svg"
   xmlns:inkscape="http://www.inkscape.org/namespaces/inkscape"
   xmlns:sodipodi="http://sodipodi.sourceforge.net/DTD/sodipodi-0.dtd"
   xmlns="http://www.w3.org/2000/svg"
   xmlns:svg="http://www.w3.org/2000/svg">
  <sodipodi:namedview
     id="namedview2281"
     pagecolor="#ffffff"
     bordercolor="#999999"
     borderopacity="1"
     inkscape:showpageshadow="0"
     inkscape:pageopacity="0"
     inkscape:pagecheckerboard="0"
     inkscape:deskcolor="#d1d1d1"
     inkscape:document-units="mm"
     showgrid="false"
     inkscape:zoom="0.71624579"
     inkscape:cx="295.28969"
     inkscape:cy="561.95793"
     inkscape:window-width="1920"
     inkscape:window-height="991"
     inkscape:window-x="-9"
     inkscape:window-y="-9"
     inkscape:window-maximized="1"
     inkscape:current-layer="layer1" />
  <defs
     id="defs2276" />
  <g
     inkscape:label="Layer 1"
     inkscape:groupmode="layer"
     id="layer1"
     transform="translate(-35.125008,-116.4273)">
    <path
       d="m 35.775927,137.8769 0.0039,8.93586 c 0.0049,1.33562 0.226836,2.57669 0.517172,3.63538 0.805039,2.95768 1.25095,4.99074 1.382537,7.70149 0.0515,1.00153 0.01623,2.0126 -0.09313,3.01025 l -0.0042,0.0265 c -0.09208,0.86854 0.353836,1.72191 1.184628,2.18158 1.347964,0.75635 3.842808,1.67358 7.974895,1.65805 4.37515,-0.0162 6.740878,-1.15605 7.896225,-2.01048 0.606072,-0.44273 0.955322,-1.10772 0.952853,-1.80693 v -0.013 c 0.169686,-1.37795 0.296333,-4.02308 1.753306,-6.34788 0.649464,-1.03611 1.030816,-2.21721 1.030816,-3.43994 v -5.55554 L 35.775927,137.8769"
       style="fill:#ffffff;fill-opacity:1;fill-rule:nonzero;stroke:none;stroke-width:0.0352778"
       id="path94"
       inkscape:export-filename="..\..\..\inkscape\teguran-1.svg"
       inkscape:export-xdpi="17.104378"
       inkscape:export-ydpi="17.104378" />
    <path
       d="m 46.639719,165.67685 c -4.201231,3.5e-4 -6.77157,-0.94439 -8.191501,-1.74061 -1.03893,-0.57538 -1.634419,-1.68275 -1.513416,-2.81869 0.0011,-0.0113 0.0071,-0.049 0.0088,-0.06 0.103717,-0.95497 0.134408,-1.93287 0.08572,-2.87444 -0.128058,-2.63913 -0.5588,-4.61786 -1.360664,-7.56391 -0.35313,-1.28693 -0.535164,-2.56751 -0.53975,-3.80365 l -0.0039,-8.93798 c 0,-0.36018 0.291394,-0.65158 0.650522,-0.65158 7.05e-4,0 7.05e-4,0 7.05e-4,0 0.359481,0 0.650875,0.29105 0.650875,0.65053 l 0.0039,8.93586 c 0.0042,1.12007 0.170392,2.28565 0.493889,3.46322 0.826911,3.03812 1.271058,5.08529 1.405114,7.8426 0.0515,1.00965 0.0194,2.05705 -0.09631,3.11221 -0.0011,0.0106 -0.0067,0.0476 -0.0085,0.0582 -0.06209,0.59091 0.264583,1.18181 0.856544,1.50954 1.287287,0.72249 3.637492,1.57657 7.557206,1.57657 0.03351,0 0.06668,0 0.09984,0 4.343048,-0.0162 6.57084,-1.1864 7.512051,-1.88278 0.440619,-0.32173 0.690033,-0.78775 0.688622,-1.28058 0,-0.0275 0.0014,-0.0684 0.0049,-0.0956 0.0194,-0.15839 0.03845,-0.33302 0.05856,-0.52246 0.158045,-1.46297 0.422628,-3.91125 1.789642,-6.09141 0.608894,-0.97191 0.931333,-2.04224 0.931333,-3.09457 v -5.55519 c 0,-0.35948 0.291395,-0.65088 0.650875,-0.65088 0.359481,0 0.650875,0.2914 0.650875,0.65088 v 5.55519 c 0,1.29716 -0.390525,2.60667 -1.1303,3.78636 -1.207205,1.92617 -1.442508,4.10069 -1.597377,5.53967 -0.02011,0.18098 -0.0381,0.34925 -0.05645,0.50236 -0.0099,0.91087 -0.452614,1.74484 -1.219553,2.3054 -1.303161,0.96414 -3.800475,2.11914 -8.277931,2.13572 -0.03493,0 -0.0702,0 -0.104422,0"
       style="fill:#999999;fill-opacity:1;fill-rule:nonzero;stroke:none;stroke-width:0.0352778"
       id="path96" />
    <path
       d="m 55.813706,117.85923 c -0.479073,-0.48331 -1.135592,-0.78352 -1.860198,-0.7807 -1.419578,0.005 -2.569633,1.16664 -2.611967,2.6095 v 19.44264 l 5.24757,-0.35877 v -19.00979 c -0.0028,-0.7433 -0.300214,-1.41464 -0.775405,-1.90288"
       style="fill:#ffffff;fill-opacity:1;fill-rule:nonzero;stroke:none;stroke-width:0.0352778"
       id="path98" />
    <path
       d="m 51.341189,139.7819 c -0.359481,0 -0.650875,-0.29175 -0.650875,-0.65123 v -19.44264 c 0.05327,-1.83057 1.485547,-3.25438 3.260372,-3.26073 0.0039,0 0.0081,0 0.01164,0 0.86995,0 1.691216,0.34537 2.314222,0.97402 0.619831,0.63712 0.960614,1.4732 0.963436,2.35867 v 19.01191 c 0,0.35912 -0.291394,0.65052 -0.650875,0.65052 -0.35948,0 -0.650875,-0.2914 -0.650875,-0.65052 v -19.00979 c -0.0018,-0.54363 -0.211667,-1.05904 -0.590903,-1.4485 -0.37218,-0.37536 -0.865011,-0.5842 -1.385358,-0.5842 -0.0021,0 -0.0042,0 -0.0067,0 -1.068211,0.004 -1.930753,0.87277 -1.963561,1.97767 l 7.05e-4,19.42359 c 0,0.35948 -0.291747,0.65123 -0.651227,0.65123"
       style="fill:#999999;fill-opacity:1;fill-rule:nonzero;stroke:none;stroke-width:0.0352778"
       id="path100" />
    <path
       d="m 45.121716,154.88361 6.438195,-11.08604 c 0,0 -6.438195,-0.0829 -6.438195,11.08604"
       style="fill:#ffffff;fill-opacity:1;fill-rule:nonzero;stroke:none;stroke-width:0.0352778"
       id="path102" />
    <path
       d="m 45.121363,155.53449 c -0.35948,0 -0.650875,-0.2914 -0.650875,-0.65088 0,-4.54413 1.032934,-7.86871 3.069873,-9.87989 1.888772,-1.86408 3.94335,-1.84962 4.028017,-1.85738 0.35948,0.005 0.647347,0.29986 0.642761,0.65934 -0.0049,0.35666 -0.295628,0.64312 -0.651228,0.64312 -0.0018,0 -0.0028,0 -0.0046,0 -0.247297,0 -5.782734,0.13299 -5.782734,10.43481 0,0.35948 -0.291747,0.65088 -0.651228,0.65088"
       style="fill:#999999;fill-opacity:1;fill-rule:nonzero;stroke:none;stroke-width:0.0352778"
       id="path104" />
    <path
       d="m 48.721461,144.54405 c -1.448859,-0.0505 -2.484262,-0.91828 -2.586214,-2.31423 l -3.53e-4,-8.72948 -3.53e-4,-1.46826 v -1.10631 c 0,-1.44569 1.171928,-2.62185 2.621845,-2.62185 1.444978,0 2.584803,1.17616 2.584803,2.62185 l 0.0018,11.25008 c 0,0.7246 -0.292453,1.38289 -0.768351,1.85314 -0.484363,0.47907 -1.226961,0.53693 -1.853141,0.51506"
       style="fill:#ffffff;fill-opacity:1;fill-rule:nonzero;stroke:none;stroke-width:0.0352778"
       id="path106" />
    <path
       d="m 48.743686,143.89352 c 0.686505,0.0236 1.123597,-0.0797 1.373716,-0.32702 0.370064,-0.36689 0.574323,-0.86043 0.574323,-1.39065 l -0.0014,-11.25008 c 0,-1.10526 -0.849489,-1.97062 -1.934281,-1.97062 -1.086203,0 -1.970264,0.88371 -1.970264,1.97062 l 7.05e-4,11.27901 c 0.08396,1.01847 0.814212,1.64888 1.957212,1.68874 z m 0.194733,1.30563 c -0.08326,0 -0.163336,-0.001 -0.239536,-0.004 v 0 c -1.827389,-0.0635 -3.088217,-1.20897 -3.212748,-2.91747 -0.0014,-0.0159 -0.0018,-0.0317 -0.0018,-0.0476 l -0.0011,-11.30405 c 0,-1.80482 1.468261,-3.27308 3.27272,-3.27308 1.784703,0 3.236383,1.46826 3.236383,3.27308 l 0.0014,11.25008 c 0,0.88018 -0.340784,1.70286 -0.960967,2.31634 -0.608542,0.60148 -1.443567,0.70696 -2.094442,0.70696"
       style="fill:#999999;fill-opacity:1;fill-rule:nonzero;stroke:none;stroke-width:0.0352778"
       id="path108" />
    <path
       d="m 38.334624,142.1949 c -1.413228,0 -2.558697,-1.14547 -2.558697,-2.5587 v -6.42055 c 0,-1.41323 1.145469,-2.5587 2.558697,-2.5587 v 0 c 1.413228,0 2.558697,1.14547 2.558697,2.5587 v 6.42055 c 0,1.41323 -1.145469,2.5587 -2.558697,2.5587 v 0"
       style="fill:#ffffff;fill-opacity:1;fill-rule:nonzero;stroke:none;stroke-width:0.0352778"
       id="path110" />
    <path
       d="m 38.334624,131.30782 c -1.051631,0 -1.90747,0.85584 -1.90747,1.90783 v 6.4209 c 0,1.05128 0.855839,1.90712 1.90747,1.90712 1.051983,0 1.907822,-0.85584 1.907822,-1.90712 v -6.4209 c 0,-1.05199 -0.855839,-1.90783 -1.907822,-1.90783 z m 0,11.53831 c -1.769534,0 -3.209572,-1.44004 -3.209572,-3.20958 v -6.4209 c 0,-1.77024 1.440038,-3.20993 3.209572,-3.20993 1.769886,0 3.209925,1.43969 3.209925,3.20993 v 6.4209 c 0,1.76954 -1.440039,3.20958 -3.209925,3.20958"
       style="fill:#999999;fill-opacity:1;fill-rule:nonzero;stroke:none;stroke-width:0.0352778"
       id="path112" />
    <path
       d="m 43.514108,128.30498 c -1.447448,0 -2.620787,1.17334 -2.620787,2.62079 v 9.73243 c 0,1.4478 1.173339,2.62114 2.620787,2.62114 v 0 c 1.447447,0 2.620786,-1.17334 2.620786,-2.62114 v -9.73243 c 0,-1.44745 -1.173339,-2.62079 -2.620786,-2.62079 v 0"
       style="fill:#ffffff;fill-opacity:1;fill-rule:nonzero;stroke:none;stroke-width:0.0352778"
       id="path114" />
    <path
       d="m 43.514108,128.95585 c -1.08585,0 -1.969559,0.88371 -1.969559,1.96992 v 9.73243 c 0,1.0862 0.883709,1.96956 1.969559,1.96956 1.08585,0 1.969911,-0.88336 1.969911,-1.96956 v -9.73243 c 0,-1.08621 -0.884061,-1.96992 -1.969911,-1.96992 z m 0,14.97436 c -1.804106,0 -3.271662,-1.46791 -3.271662,-3.27201 v -9.73243 c 0,-1.80411 1.467556,-3.27202 3.271662,-3.27202 1.804105,0 3.272014,1.46791 3.272014,3.27202 v 9.73243 c 0,1.8041 -1.467909,3.27201 -3.272014,3.27201"
       style="fill:#999999;fill-opacity:1;fill-rule:nonzero;stroke:none;stroke-width:0.0352778"
       id="path116" />
    <path
       d="m 54.363789,138.37185 h -6.76522 c -1.899708,0 -2.875492,1.2774 -2.875492,2.85009 0,1.15817 0.922514,2.62608 3.002139,2.62608 h 3.889375 l 2.747787,2.15018 4.012494,-0.14605 c 0.0321,-4.4316 0.418395,-7.4803 -4.011083,-7.4803"
       style="fill:#ffffff;fill-opacity:1;fill-rule:nonzero;stroke:none;stroke-width:0.0352778"
       id="path118" />
    <path
       d="m 54.362025,146.64942 c -0.140053,0 -0.28187,-0.0451 -0.400403,-0.13864 l -2.571397,-2.01154 h -3.665009 c -2.372783,0 -3.653367,-1.68839 -3.653367,-3.2773 0,-2.09409 1.417461,-3.50097 3.52672,-3.50097 h 6.76522 c 1.579033,0 2.711803,0.37077 3.464631,1.13383 1.271764,1.28834 1.243541,3.39725 1.208264,6.06672 -0.0042,0.30445 -0.0088,0.6163 -0.01094,0.93557 -0.0025,0.35806 -0.293511,0.64628 -0.650875,0.64628 -0.0018,0 -0.0032,0 -0.0046,0 -0.35948,-0.002 -0.649111,-0.29633 -0.646289,-0.65581 0.0025,-0.32209 0.0064,-0.63641 0.01023,-0.94333 0.0321,-2.36573 0.05644,-4.23404 -0.832203,-5.13503 -0.495653,-0.502 -1.325739,-0.74613 -2.538236,-0.74613 h -6.76522 c -1.392767,0 -2.224264,0.82198 -2.224264,2.19887 0,0.7941 0.625828,1.97555 2.350911,1.97555 h 3.889375 c 0.145345,0 0.286456,0.0483 0.401109,0.13794 l 2.747786,2.14983 c 0.283633,0.22154 0.333375,0.63076 0.111831,0.91404 -0.128411,0.1644 -0.31997,0.25012 -0.513292,0.25012"
       style="fill:#999999;fill-opacity:1;fill-rule:nonzero;stroke:none;stroke-width:0.0352778"
       id="path120" />
  </g>
</svg>
