<?xml version="1.0" encoding="UTF-8" standalone="no"?>
<!-- Created with Inkscape (http://www.inkscape.org/) -->

<svg
   width="30.655769mm"
   height="34.689423mm"
   viewBox="0 0 30.655769 34.689423"
   version="1.1"
   id="svg2279"
   inkscape:export-filename="..\..\..\inkscape\teguran-2.svg"
   inkscape:export-xdpi="20.124235"
   inkscape:export-ydpi="20.124235"
   inkscape:version="1.2.2 (732a01da63, 2022-12-09)"
   sodipodi:docname="drawing.svg"
   xml:space="preserve"
   xmlns:inkscape="http://www.inkscape.org/namespaces/inkscape"
   xmlns:sodipodi="http://sodipodi.sourceforge.net/DTD/sodipodi-0.dtd"
   xmlns="http://www.w3.org/2000/svg"
   xmlns:svg="http://www.w3.org/2000/svg"><sodipodi:namedview
     id="namedview2281"
     pagecolor="#ffffff"
     bordercolor="#999999"
     borderopacity="1"
     inkscape:showpageshadow="0"
     inkscape:pageopacity="0"
     inkscape:pagecheckerboard="0"
     inkscape:deskcolor="#d1d1d1"
     inkscape:document-units="mm"
     showgrid="false"
     inkscape:zoom="0.71624579"
     inkscape:cx="295.28969"
     inkscape:cy="561.95793"
     inkscape:window-width="1920"
     inkscape:window-height="991"
     inkscape:window-x="-9"
     inkscape:window-y="-9"
     inkscape:window-maximized="1"
     inkscape:current-layer="layer1" /><defs
     id="defs2276" /><g
     inkscape:label="Layer 1"
     inkscape:groupmode="layer"
     id="layer1"
     transform="translate(-22.696847,-194.63514)"><path
       style="fill:#000000;stroke-width:0.0678458"
       d="m 39.455183,229.2278 c -0.609698,-0.22163 -1.084168,-0.66775 -1.29112,-1.21399 -0.04242,-0.11194 -0.686258,-3.22606 -1.430767,-6.92027 l -1.353649,-6.71673 -0.393547,-0.40708 c -0.216448,-0.22389 -2.602936,-2.68161 -5.303304,-5.46158 -2.700366,-2.77999 -5.311438,-5.46844 -5.802376,-5.97434 -0.7555,-0.77852 -0.915984,-0.98175 -1.044754,-1.32299 -0.534733,-1.417 0.545515,-2.89724 2.039217,-2.79428 0.883884,0.0609 0.590786,-0.20715 7.087863,6.48268 l 3.248889,3.34528 0.171026,-0.20224 c 0.09406,-0.11124 1.31592,-1.44231 2.715238,-2.95792 1.399325,-1.51562 2.553215,-2.78142 2.564213,-2.81289 0.01102,-0.0315 -1.393417,-1.04141 -3.12091,-2.24431 -1.727492,-1.20291 -3.225076,-2.26568 -3.327963,-2.36172 -0.457425,-0.42699 -0.642697,-1.19946 -0.445528,-1.85754 0.101373,-0.33836 0.532897,-0.83113 0.89528,-1.02237 0.346903,-0.18306 1.103486,-0.20279 1.467382,-0.0382 0.315151,0.14249 9.653099,6.66504 10.147196,7.08781 0.545168,0.46645 1.303897,1.41064 1.639099,2.03975 0.49254,0.92439 0.491666,0.91493 0.492793,5.33784 6.33e-4,2.62913 -0.0233,4.00837 -0.07258,4.1728 -0.182892,0.61044 -0.735961,1.10133 -1.374948,1.22037 -0.243364,0.0453 -0.976767,0.003 -2.815605,-0.16544 -2.843534,-0.25931 -2.860312,-0.26162 -3.255942,-0.45015 l -0.294497,-0.14034 -0.45402,0.45054 -0.454012,0.45054 1.241043,6.15649 c 1.339157,6.64318 1.322593,6.52738 1.030749,7.20579 -0.388228,0.90246 -1.601945,1.44259 -2.504462,1.11454 z m 5.427298,-18.8579 c 0,-0.27766 -0.02374,-0.50484 -0.05268,-0.50484 -0.029,0 -0.26296,0.21188 -0.519937,0.47085 -0.441375,0.44478 -0.458172,0.47289 -0.303488,0.50791 0.203875,0.0462 0.756748,0.0812 0.825248,0.0524 0.02799,-0.0118 0.05091,-0.24863 0.05091,-0.52629 z m 3.901134,-7.53595 c -1.33425,-0.20535 -2.507749,-1.04815 -3.06789,-2.20335 -0.350297,-0.72244 -0.4365,-1.09287 -0.431948,-1.85621 0.0044,-0.73256 0.13098,-1.25797 0.448961,-1.86308 0.47963,-0.91274 1.358366,-1.65433 2.341907,-1.97642 0.626698,-0.20523 1.779202,-0.23001 2.346106,-0.0505 1.311424,0.41538 2.361446,1.41718 2.744774,2.6187 0.203539,0.638 0.248455,1.6717 0.09788,2.25288 -0.35395,1.3662 -1.429931,2.51239 -2.74057,2.91938 -0.430846,0.13379 -1.353542,0.21789 -1.739225,0.15854 z"
       id="path1891"
       inkscape:export-filename="..\..\..\inkscape\kick.png"
       inkscape:export-xdpi="20.124235"
       inkscape:export-ydpi="20.124235" /></g></svg>
